<?xml version="1.0" encoding="UTF-8" standalone="no"?>
<svg
   xmlns:dc="http://purl.org/dc/elements/1.1/"
   xmlns:cc="http://creativecommons.org/ns#"
   xmlns:rdf="http://www.w3.org/1999/02/22-rdf-syntax-ns#"
   xmlns:svg="http://www.w3.org/2000/svg"
   xmlns="http://www.w3.org/2000/svg"
   xmlns:sodipodi="http://sodipodi.sourceforge.net/DTD/sodipodi-0.dtd"
   xmlns:inkscape="http://www.inkscape.org/namespaces/inkscape"
   width="163"
   height="144"
   version="1.1"
   id="svg1120"
   sodipodi:docname="pastell.svg"
   inkscape:version="0.92.4 (5da689c313, 2019-01-14)">
  <metadata
     id="metadata10">
    <rdf:RDF>
      <cc:Work
         rdf:about="">
        <dc:format>image/svg+xml</dc:format>
        <dc:type
           rdf:resource="http://purl.org/dc/dcmitype/StillImage" />
        <dc:title></dc:title>
      </cc:Work>
    </rdf:RDF>
  </metadata>
  <sodipodi:namedview
     pagecolor="#ffffff"
     bordercolor="#666666"
     borderopacity="1"
     objecttolerance="10"
     gridtolerance="10"
     guidetolerance="10"
     inkscape:pageopacity="0"
     inkscape:pageshadow="2"
     inkscape:window-width="1240"
     inkscape:window-height="2371"
     id="namedview8"
     showgrid="false"
     inkscape:zoom="4"
     inkscape:cx="81.5"
     inkscape:cy="73.525424"
     inkscape:window-x="101"
     inkscape:window-y="-9"
     inkscape:window-maximized="1"
     inkscape:current-layer="svg1120" />
  <defs
     id="defs1124">
    <filter
       inkscape:collect="always"
       style="color-interpolation-filters:sRGB"
       id="filter6372"
       x="-0.059546752"
       width="1.1190935"
       y="-0.0604602"
       height="1.1209204">
      <feGaussianBlur
         inkscape:collect="always"
         stdDeviation="2.8588354"
         id="feGaussianBlur6374" />
    </filter>
    <meshgradient
       inkscape:collect="always"
       id="meshgradient6552"
       gradientUnits="userSpaceOnUse"
       x="39.428963"
       y="64.75">
      <meshrow
         id="meshrow6554">
        <meshpatch
           id="meshpatch6556">
          <stop
             path="c 47.1404,0  94.2809,0  141.421,0"
             style="stop-color:#ffffff;stop-opacity:1"
             id="stop6558" />
          <stop
             path="c 0,38.9559  0,77.9118  0,116.868"
             style="stop-color:#800080;stop-opacity:1"
             id="stop6560" />
          <stop
             path="c -47.1404,0  -94.2809,0  -141.421,0"
             style="stop-color:#ffffff;stop-opacity:1"
             id="stop6562" />
          <stop
             path="c 0,-38.9559  0,-77.9118  0,-116.868"
             style="stop-color:#800080;stop-opacity:1"
             id="stop6564" />
        </meshpatch>
      </meshrow>
    </meshgradient>
  </defs>
  <g
     id="g5782"
     transform="translate(-30.25,-59.5)">
    <path
       style="fill:url(#meshgradient6552);fill-opacity:1;stroke:#8cedff;stroke-opacity:1"
       d="m 110.25161,179.25424 c -0.55088,-1.44894 -1.00161,-3.44446 -1.00161,-4.43448 0,-2.28836 -3.71694,-7.06976 -5.49586,-7.06976 -0.74288,0 -2.7829,1.20512 -4.533371,2.67805 -3.878289,3.26336 -5.833365,2.44158 -7.819875,-3.28697 -5.134324,-14.80597 -8.962423,-17.53342 -16.167054,-11.51873 -2.77037,2.31281 -3.21095,3.14907 -2.261674,4.29288 1.712614,2.06357 -1.522047,10.83477 -3.995669,10.83477 -2.454236,0 -3.289101,-2.70729 -1.476277,-4.78725 0.82103,-0.94201 2.024196,-2.73974 2.673702,-3.99496 1.098919,-2.12373 1.011258,-2.23963 -1.262406,-1.66897 -3.226399,0.80977 -3.720825,-0.25243 -2.989955,-6.42348 l 0.611466,-5.16287 3.351913,0.62882 c 5.229332,0.98103 8.36506,-0.18491 8.36506,-3.11034 0,-2.79077 -2.075552,-3.29977 -4,-0.98095 -0.684689,0.825 -2.282226,1.5 -3.550082,1.5 -1.861568,0 -2.911759,-1.2838 -5.457081,-6.67099 C 59.329748,127.56394 53.985381,122.75 46.004411,122.75 c -4.546777,0 -7.555431,-1.89491 -6.281484,-3.9562 0.354809,-0.57409 3.038449,-1.0438 5.963645,-1.0438 6.900485,0 7.586755,-0.93197 6.395258,-8.6849 -1.145635,-7.45452 0.388596,-11.332576 5.730223,-14.484213 5.129259,-3.026337 4.669206,-6.058078 -2.106578,-13.882301 -6.083194,-7.024467 -7.038036,-11.152652 -2.721464,-11.766042 1.768505,-0.251306 2.569768,0.477998 3.845341,3.5 3.93159,9.314467 4.925157,10.757036 8.014634,11.636521 2.410276,0.686135 4.008848,0.41404 7.234,-1.23131 4.78439,-2.440813 5.920499,-5.289793 4.194722,-10.518948 C 74.960652,68.343236 75.677274,64.75 77.782204,64.75 c 2.184415,0 3.717178,3.85714 3.016649,7.591283 -0.749039,3.992723 0.789251,7.408717 3.336292,7.408717 0.998128,0 3.664001,1.33957 5.924162,2.976822 3.993555,2.892917 4.190342,2.930359 6.981622,1.328384 3.692821,-2.119386 5.476211,-1.369359 7.653401,3.218723 2.0293,4.276433 1.57147,8.240776 -1.44016,12.47022 -1.48147,2.080531 -1.95408,4.160891 -1.79193,7.887721 0.33697,7.74456 -4.245029,13.00829 -8.570378,9.84552 -1.347362,-0.98521 -2.064183,-3.51786 -2.762651,-9.7609 -0.518758,-4.63676 -1.339591,-8.82687 -1.824072,-9.311351 -1.943841,-1.943841 -3.184586,0.680642 -2.929113,6.195791 0.343999,7.42625 -1.51104,7.4815 -5.005133,0.14907 -2.580494,-5.415222 -5.27747,-7.141028 -5.922813,-3.79003 -0.18112,0.94048 0.87989,3.77331 2.3578,6.29517 1.47791,2.52186 2.399176,4.87314 2.047258,5.22506 -0.351918,0.35191 -2.390971,-1.07008 -4.531228,-3.15998 -3.834189,-3.74399 -6.07191,-4.03847 -6.07191,-0.79906 0,0.90923 1.9125,3.62753 4.25,6.04067 l 4.25,4.38753 -5.142155,-0.67869 c -7.208101,-0.95135 -7.762132,0.87709 -1.160314,3.82934 3.944215,1.7638 5.801736,3.32323 7.251552,6.08786 3.132149,5.97264 9.666827,8.27053 14.296952,5.02746 1.205077,-0.84407 3.072475,-3.52728 4.149774,-5.96269 1.373142,-3.10422 2.727872,-4.62107 4.531461,-5.07374 1.66744,-0.4185 2.57273,-1.33446 2.57273,-2.60305 0,-1.07653 0.48768,-2.86858 1.08374,-3.98232 0.78483,-1.46647 0.76971,-2.78312 -0.0548,-4.77372 -1.44204,-3.48139 0.26938,-11.043905 3.6326,-16.051945 1.28616,-1.915173 2.33848,-4.095707 2.33848,-4.845629 0,-2.107619 -3.82406,-6.98162 -6.02598,-7.680482 -2.1115,-0.670165 -2.6857,-3.933878 -0.88761,-5.045156 0.59752,-0.36929 2.53144,0.729153 4.2976,2.440983 3.57269,3.462787 5.30883,3.811979 8.17486,1.644222 2.82246,-2.134798 5.2612,-1.86099 8.6235,0.968197 1.68634,1.418961 4.23515,2.5 5.89436,2.5 3.8686,0 7.34807,-3.442025 6.41146,-6.342454 -1.86425,-5.77304 -1.72617,-8.459815 0.49589,-9.649026 1.78292,-0.954192 2.53308,-0.850471 4.09911,0.566763 2.28679,2.06952 2.51506,6.683325 0.41681,8.424717 -2.27506,1.888136 -1.87771,8.240891 0.72651,11.615141 5.06547,6.563255 7.46982,6.814658 17.33933,1.813029 6.07621,-3.079278 7.54655,-3.456231 10.4981,-2.691408 2.35138,0.609304 3.71688,1.698702 4.33605,3.459301 1.57131,4.467986 0.27169,5.803937 -5.6461,5.803937 -3.18648,0 -6.1974,0.622343 -7.53138,1.556704 -2.63717,1.847146 -2.92982,5.988456 -0.6529,9.239216 1.65945,2.36919 8.4153,6.11674 14.68807,8.14765 4.38398,1.41938 6.51214,4.42393 4.68927,6.62035 -1.92415,2.31847 -4.67822,1.67365 -8.81527,-2.06392 -6.21586,-5.61565 -10.66796,-4.28341 -12.53176,3.75 -0.55906,2.40964 -1.11155,2.75 -4.46398,2.75 -5.025,0 -6.95692,2.25583 -8.13594,9.5 -1.52274,9.35605 -6.53378,12.41956 -11.0411,6.75 l -2.18625,-2.75 0.70691,5.24561 c 0.58099,4.31124 0.42311,5.35451 -0.88633,5.85699 -2.42028,0.92874 -1.91786,2.08858 1.40677,3.24755 1.65,0.5752 3,1.44434 3,1.93144 0,1.87356 -7.78829,9.21841 -9.77496,9.21841 -2.97279,0 -5.22504,-2.65301 -5.22504,-6.15476 0,-3.24525 -1.58864,-3.47197 -3.42856,-0.48931 -1.04526,1.69446 1.01886,4.04728 10.67856,12.17213 0.9625,0.80957 1.75,2.59694 1.75,3.97194 0,4.29942 -3.62712,3.08451 -9.44126,-3.16237 -3.70533,-3.9811 -5.75834,-5.47501 -6.91443,-5.03138 -2.07244,0.79527 -2.09723,3.07287 -0.0672,6.17112 2.16667,3.30676 1.51089,6.93911 -1.32551,7.34197 -1.66171,0.23601 -2.50975,-0.36807 -3.25,-2.3151 z m -6.15242,-37.62472 c 2.33375,-1.71626 3.99563,-3.36804 3.69306,-3.67061 -0.30258,-0.30257 -1.56086,0.39671 -2.79619,1.55395 -1.40666,1.31775 -3.9278,2.23577 -6.74606,2.45647 -4.265592,0.33402 -4.369773,0.41232 -2,1.50314 3.419497,1.574 3.101242,1.64873 7.84919,-1.84295 z m 23.64034,-3.43698 c 3.89859,-2.64565 6.51047,-2.63519 6.51047,0.0261 0,0.84227 0.72746,1.53139 1.61658,1.53139 1.2221,0 1.46612,-0.61005 1,-2.5 -0.33912,-1.375 -0.89705,-3.64077 -1.23986,-5.03504 -0.73318,-2.98208 1.31843,-5.68183 5.69557,-7.49491 1.61024,-0.66698 2.92771,-1.8331 2.92771,-2.59137 0,-1.71856 -0.82525,-1.69353 -4,0.12132 -5.92135,3.38495 -6.91352,-0.25301 -1.5,-5.5 3.92633,-3.80555 4.47831,-6 1.50919,-6 -1.17311,0 -2.91874,1.42856 -4.25,3.47805 -4.26748,6.56982 -6.44043,4.48148 -3.25919,-3.13229 2.03393,-4.86788 1.95413,-7.57986 -0.21077,-7.16294 -1.64914,0.31759 -3.4897,4.24031 -4.75688,10.13822 -0.98562,4.58736 -2.98993,2.50614 -3.53235,-3.6679 -0.275,-3.13014 -0.8375,-5.68261 -1.25,-5.67215 -0.4125,0.0105 -1.2,0.019 -1.75,0.019 -0.59596,0 -1,3.80952 -1,9.42857 0,7.2381 -0.36508,9.79365 -1.57143,11 -2.38119,2.38119 -4.06269,1.91768 -6.99637,-1.92857 -2.7322,-3.58211 -3.94497,-4.09551 -6.23843,-2.64092 -0.98057,0.62191 -0.41962,1.71507 2.25,4.38469 2.00541,2.00541 3.55623,4.55536 3.55623,5.84736 0,2.16704 0.073,2.19126 1.3483,0.44722 1.70155,-2.32701 3.30925,-1.37401 4.15154,2.46093 0.58479,2.66254 4.60988,7.00072 6.49547,7.00072 0.39908,0 2.42148,-1.15086 4.49422,-2.55746 z m 34.48845,-1.13832 c -1.63789,-2.58268 -2.95781,-5.62018 -2.93317,-6.75 0.0361,-1.65527 0.91006,-1.08849 4.5,2.9184 2.45036,2.73494 4.45519,5.77244 4.45519,6.75 0,3.28112 -3.01793,1.81857 -6.02202,-2.9184 z M 43.110784,94.820459 c -2.284879,-1.867501 -2.306717,-2.020225 -0.679204,-4.75 2.507031,-4.204962 4.323812,-4.01387 6.190369,0.651114 0.895428,2.237895 1.628051,4.509793 1.628051,5.048663 0,1.689239 -4.670629,1.067874 -7.139216,-0.949777 z m 107.244566,-9.01784 c -4.95041,-4.344001 -5.15702,-7.429981 -0.45993,-6.86959 2.98511,0.356142 6.18696,4.101452 6.58845,7.706739 0.40498,3.636569 -1.2949,3.404368 -6.12852,-0.837149 z"
       id="path5788" />
    <path
       style="fill:#92e5ff;fill-opacity:1;stroke:#00edff;stroke-opacity:1;stroke-width:1;stroke-miterlimit:4;stroke-dasharray:4, 8;stroke-dashoffset:2.2;filter:url(#filter6372)"
       d="m 110.25161,179.25424 c -0.55088,-1.44894 -1.00161,-3.44446 -1.00161,-4.43448 0,-2.28836 -3.71694,-7.06976 -5.49586,-7.06976 -0.74288,0 -2.7829,1.20512 -4.533371,2.67805 -3.878289,3.26336 -5.833365,2.44158 -7.819875,-3.28697 -5.134324,-14.80597 -8.962423,-17.53342 -16.167054,-11.51873 -2.77037,2.31281 -3.21095,3.14907 -2.261674,4.29288 1.712614,2.06357 -1.522047,10.83477 -3.995669,10.83477 -2.454236,0 -3.289101,-2.70729 -1.476277,-4.78725 0.82103,-0.94201 2.024196,-2.73974 2.673702,-3.99496 1.098919,-2.12373 1.011258,-2.23963 -1.262406,-1.66897 -3.226399,0.80977 -3.720825,-0.25243 -2.989955,-6.42348 l 0.611466,-5.16287 3.351913,0.62882 c 1.843553,0.34585 4.479872,0.34573 5.858487,-2.8e-4 2.068757,-0.51923 2.506573,-1.23098 2.506573,-4.07488 0,-2.34539 0.598596,-3.76612 1.874473,-4.44895 2.345242,-1.25514 11.332837,0.13268 15.928183,2.45954 3.23464,1.63786 3.384572,1.61553 7.280224,-1.08416 2.18766,-1.51605 5.39627,-4.94589 7.13025,-7.62187 1.73397,-2.67598 3.60187,-4.71569 4.15088,-4.53269 0.54901,0.18301 1.50073,1.82526 2.11493,3.64946 1.02808,3.05341 4.7135,7.06254 6.4923,7.06254 0.41232,0 2.44555,-1.15086 4.51829,-2.55746 3.89859,-2.64565 6.51047,-2.63519 6.51047,0.0261 0,0.84227 0.72746,1.53139 1.61658,1.53139 1.2221,0 1.46612,-0.61005 1,-2.5 -0.33912,-1.375 -0.89705,-3.64077 -1.23986,-5.03504 -0.73318,-2.98208 1.31843,-5.68183 5.69557,-7.49491 1.61024,-0.66698 2.92771,-1.8331 2.92771,-2.59137 0,-1.71856 -0.82525,-1.69353 -4,0.12132 -5.92135,3.38495 -6.91352,-0.25301 -1.5,-5.5 3.92633,-3.80555 4.47831,-6 1.50919,-6 -1.17311,0 -2.91874,1.42856 -4.25,3.47805 -4.26748,6.56982 -6.44043,4.48148 -3.25919,-3.13229 2.03393,-4.86788 1.95413,-7.57986 -0.21077,-7.16294 -1.64914,0.31759 -3.4897,4.24031 -4.75688,10.13822 -0.98562,4.58736 -2.98993,2.50614 -3.53235,-3.6679 -0.275,-3.13014 -0.8375,-5.68261 -1.25,-5.67215 -0.4125,0.0105 -1.2,0.019 -1.75,0.019 -0.59596,0 -1,3.80952 -1,9.42857 0,7.2381 -0.36508,9.79365 -1.57143,11 -2.38701,2.38701 -4.06384,1.91617 -7.03124,-1.9743 -2.30974,-3.02822 -3.1199,-3.45448 -5.5509,-2.92054 -3.15848,0.69372 -3.77134,-0.937 -1.76269,-4.6902 0.78483,-1.46647 0.76971,-2.78312 -0.0548,-4.77372 -1.44204,-3.48139 0.26938,-11.043905 3.6326,-16.051945 1.28616,-1.915173 2.33848,-4.095707 2.33848,-4.845629 0,-2.107619 -3.82406,-6.98162 -6.02598,-7.680482 -2.1115,-0.670165 -2.6857,-3.933878 -0.88761,-5.045156 0.59752,-0.36929 2.53144,0.729153 4.2976,2.440983 3.57269,3.462787 5.30883,3.811979 8.17486,1.644222 2.82246,-2.134798 5.2612,-1.86099 8.6235,0.968197 1.68634,1.418961 4.23515,2.5 5.89436,2.5 3.8686,0 7.34807,-3.442025 6.41146,-6.342454 -1.86425,-5.77304 -1.72617,-8.459815 0.49589,-9.649026 1.78292,-0.954192 2.53308,-0.850471 4.09911,0.566763 2.28679,2.06952 2.51506,6.683325 0.41681,8.424717 -2.27506,1.888136 -1.87771,8.240891 0.72651,11.615141 5.06547,6.563255 7.46982,6.814658 17.33933,1.813029 6.07621,-3.079278 7.54655,-3.456231 10.4981,-2.691408 2.35138,0.609304 3.71688,1.698702 4.33605,3.459301 1.57131,4.467986 0.27169,5.803937 -5.6461,5.803937 -3.18648,0 -6.1974,0.622343 -7.53138,1.556704 -2.63717,1.847146 -2.92982,5.988456 -0.6529,9.239216 1.65945,2.36919 8.4153,6.11674 14.68807,8.14765 4.38398,1.41938 6.51214,4.42393 4.68927,6.62035 -1.92415,2.31847 -4.67822,1.67365 -8.81527,-2.06392 -6.21586,-5.61565 -10.66796,-4.28341 -12.53176,3.75 -0.55906,2.40964 -1.11155,2.75 -4.46398,2.75 -5.025,0 -6.95692,2.25583 -8.13594,9.5 -1.52274,9.35605 -6.53378,12.41956 -11.0411,6.75 l -2.18625,-2.75 0.70691,5.24561 c 0.58099,4.31124 0.42311,5.35451 -0.88633,5.85699 -2.42028,0.92874 -1.91786,2.08858 1.40677,3.24755 1.65,0.5752 3,1.44434 3,1.93144 0,1.87356 -7.78829,9.21841 -9.77496,9.21841 -2.97279,0 -5.22504,-2.65301 -5.22504,-6.15476 0,-3.24525 -1.58864,-3.47197 -3.42856,-0.48931 -1.04526,1.69446 1.01886,4.04728 10.67856,12.17213 0.9625,0.80957 1.75,2.59694 1.75,3.97194 0,4.29942 -3.62712,3.08451 -9.44126,-3.16237 -3.70533,-3.9811 -5.75834,-5.47501 -6.91443,-5.03138 -2.07244,0.79527 -2.09723,3.07287 -0.0672,6.17112 2.16667,3.30676 1.51089,6.93911 -1.32551,7.34197 -1.66171,0.23601 -2.50975,-0.36807 -3.25,-2.3151 z m 51.97637,-42.20002 c -1.63789,-2.58268 -2.95781,-5.62018 -2.93317,-6.75 0.0361,-1.65527 0.91006,-1.08849 4.5,2.9184 2.45036,2.73494 4.45519,5.77244 4.45519,6.75 0,3.28112 -3.01793,1.81857 -6.02202,-2.9184 z M 150.35535,85.802619 c -4.95041,-4.344001 -5.15702,-7.429981 -0.45993,-6.86959 2.98511,0.356142 6.18696,4.101452 6.58845,7.706739 0.40498,3.636569 -1.2949,3.404368 -6.12852,-0.837149 z"
       id="path5786" />
    <path
       style="fill:#1e3045;fill-opacity:1"
       d="m 136.45,145.55 c -1.52516,-1.52516 -1.53883,-4.06117 -0.03,-5.56997 0.89329,-0.89329 0.84855,-2.14388 -0.1892,-5.28829 -1.62963,-4.93784 -0.8668,-6.59339 4.35046,-9.44174 2.01485,-1.1 3.66458,-2.5625 3.66607,-3.25 0.003,-1.58898 -0.87663,-1.53393 -3.9973,0.25 -5.92135,3.38495 -6.91352,-0.25301 -1.5,-5.5 3.92633,-3.80555 4.47831,-6 1.50919,-6 -1.17534,0 -2.9162,1.42858 -4.25,3.48762 -3.9751,6.13655 -6.22837,3.96439 -3.25919,-3.14186 2.03393,-4.86788 1.95413,-7.57986 -0.21077,-7.16294 -1.64914,0.31759 -3.4897,4.24031 -4.75688,10.13822 -0.98565,4.58736 -2.98996,2.50614 -3.53238,-3.6679 -0.275,-3.13014 -0.8375,-5.68261 -1.25,-5.67215 -0.4125,0.0105 -1.2,0.019 -1.75,0.019 -0.59596,0 -1,3.80952 -1,9.42857 0,7.2381 -0.36508,9.79365 -1.57143,11 -2.38701,2.38701 -4.06384,1.91617 -7.03124,-1.9743 -2.30974,-3.02822 -3.1199,-3.45448 -5.5509,-2.92054 -3.15848,0.69372 -3.77134,-0.937 -1.76269,-4.6902 0.78483,-1.46647 0.76971,-2.78312 -0.0548,-4.77372 -1.44204,-3.48139 0.26938,-11.043905 3.6326,-16.051945 1.28616,-1.915173 2.33848,-4.095707 2.33848,-4.845629 0,-2.107619 -3.82406,-6.98162 -6.02598,-7.680482 -2.1115,-0.670165 -2.6857,-3.933878 -0.88761,-5.045156 0.59752,-0.36929 2.53144,0.729153 4.2976,2.440983 3.57269,3.462787 5.30883,3.811979 8.17486,1.644222 2.82246,-2.134798 5.2612,-1.86099 8.6235,0.968197 1.68634,1.418961 4.23515,2.5 5.89436,2.5 3.8686,0 7.34807,-3.442025 6.41146,-6.342454 -1.86425,-5.77304 -1.72617,-8.459815 0.49589,-9.649026 1.78292,-0.954192 2.53308,-0.850471 4.09911,0.566763 2.28679,2.06952 2.51506,6.683325 0.41681,8.424717 -2.27506,1.888136 -1.87771,8.240891 0.72651,11.615141 5.06547,6.563255 7.46982,6.814658 17.33933,1.813029 6.07621,-3.079278 7.54655,-3.456231 10.4981,-2.691408 2.35138,0.609304 3.71688,1.698702 4.33605,3.459301 1.57131,4.467986 0.27169,5.803937 -5.6461,5.803937 -3.18648,0 -6.1974,0.622343 -7.53138,1.556704 -2.63717,1.847146 -2.92982,5.988456 -0.6529,9.239216 1.65945,2.36919 8.4153,6.11674 14.68807,8.14765 4.38398,1.41938 6.51214,4.42393 4.68927,6.62035 -1.92415,2.31847 -4.67822,1.67365 -8.81527,-2.06392 -6.21586,-5.61565 -10.66796,-4.28341 -12.53176,3.75 -0.55906,2.40964 -1.11155,2.75 -4.46398,2.75 -5.025,0 -6.95692,2.25583 -8.13594,9.5 -0.51707,3.177 -1.69834,6.61418 -2.62505,7.63818 -1.91677,2.11801 -5.39768,2.43909 -7.17495,0.66182 z m 25.77798,-8.49578 c -1.63789,-2.58268 -2.95781,-5.62018 -2.93317,-6.75 0.0361,-1.65527 0.91006,-1.08849 4.5,2.9184 2.45036,2.73494 4.45519,5.77244 4.45519,6.75 0,3.28112 -3.01793,1.81857 -6.02202,-2.9184 z M 150.35535,85.802619 c -4.95041,-4.344001 -5.15702,-7.429981 -0.45993,-6.86959 2.98511,0.356142 6.18696,4.101452 6.58845,7.706739 0.40498,3.636569 -1.2949,3.404368 -6.12852,-0.837149 z"
       id="path5784" />
  </g>
</svg>
